<mxfile host="app.diagrams.net" modified="2024-04-02T09:24:58.204Z" agent="Mozilla/5.0 (Windows NT 10.0; Win64; x64) AppleWebKit/537.36 (KHTML, like Gecko) Chrome/123.0.0.0 Safari/537.36" etag="iOXAXDBt93cw_r9j7-EB" version="24.0.6" type="device">
  <diagram name="Page-1" id="pDZRCogy7_LoOODm2fah">
    <mxGraphModel dx="1300" dy="786" grid="1" gridSize="10" guides="1" tooltips="1" connect="1" arrows="1" fold="1" page="1" pageScale="1" pageWidth="827" pageHeight="583" math="0" shadow="0">
      <root>
        <mxCell id="0" />
        <mxCell id="1" parent="0" />
        <mxCell id="THtRjXHniIfY9D9vdl9W-40" style="edgeStyle=orthogonalEdgeStyle;rounded=0;orthogonalLoop=1;jettySize=auto;html=1;exitX=0.5;exitY=0;exitDx=0;exitDy=0;entryX=0;entryY=0.5;entryDx=0;entryDy=0;" parent="1" source="THtRjXHniIfY9D9vdl9W-39" target="THtRjXHniIfY9D9vdl9W-10" edge="1">
          <mxGeometry relative="1" as="geometry" />
        </mxCell>
        <mxCell id="THtRjXHniIfY9D9vdl9W-43" value="Feedback on&amp;nbsp;&lt;br style=&quot;font-size: 9px;&quot;&gt;recreation potential&lt;br style=&quot;font-size: 9px;&quot;&gt;model" style="edgeLabel;html=1;align=center;verticalAlign=middle;resizable=0;points=[];fontSize=9;labelBackgroundColor=none;" parent="THtRjXHniIfY9D9vdl9W-40" vertex="1" connectable="0">
          <mxGeometry x="-0.3127" relative="1" as="geometry">
            <mxPoint y="-39" as="offset" />
          </mxGeometry>
        </mxCell>
        <mxCell id="THtRjXHniIfY9D9vdl9W-41" style="edgeStyle=orthogonalEdgeStyle;rounded=0;orthogonalLoop=1;jettySize=auto;html=1;exitX=0;exitY=0.5;exitDx=0;exitDy=0;entryX=0;entryY=0.5;entryDx=0;entryDy=0;" parent="1" source="THtRjXHniIfY9D9vdl9W-39" target="THtRjXHniIfY9D9vdl9W-8" edge="1">
          <mxGeometry relative="1" as="geometry" />
        </mxCell>
        <mxCell id="THtRjXHniIfY9D9vdl9W-42" value="Citizen scientists&lt;br style=&quot;font-size: 9px;&quot;&gt;&amp;nbsp;record wildlife in &lt;br style=&quot;font-size: 9px;&quot;&gt;areas suggested by&lt;br style=&quot;font-size: 9px;&quot;&gt;DECIDE priority map" style="edgeLabel;html=1;align=center;verticalAlign=middle;resizable=0;points=[];fontSize=9;labelBackgroundColor=none;" parent="THtRjXHniIfY9D9vdl9W-41" vertex="1" connectable="0">
          <mxGeometry x="-0.1325" y="2" relative="1" as="geometry">
            <mxPoint x="42" y="-105" as="offset" />
          </mxGeometry>
        </mxCell>
        <mxCell id="THtRjXHniIfY9D9vdl9W-39" value="" style="rounded=0;whiteSpace=wrap;html=1;fillColor=none;strokeColor=none;" parent="1" vertex="1">
          <mxGeometry x="80" y="292" width="60" height="60" as="geometry" />
        </mxCell>
        <mxCell id="THtRjXHniIfY9D9vdl9W-36" style="edgeStyle=orthogonalEdgeStyle;rounded=0;orthogonalLoop=1;jettySize=auto;html=1;exitX=1;exitY=0.5;exitDx=0;exitDy=0;entryX=0;entryY=0.5;entryDx=0;entryDy=0;" parent="1" source="THtRjXHniIfY9D9vdl9W-7" target="THtRjXHniIfY9D9vdl9W-18" edge="1">
          <mxGeometry relative="1" as="geometry">
            <Array as="points">
              <mxPoint x="290" y="65" />
              <mxPoint x="290" y="155" />
            </Array>
          </mxGeometry>
        </mxCell>
        <mxCell id="THtRjXHniIfY9D9vdl9W-7" value="eLTER data&amp;nbsp;&lt;br&gt;(acoustics / camera trap)" style="rounded=1;whiteSpace=wrap;html=1;" parent="1" vertex="1">
          <mxGeometry x="160" y="40" width="100" height="50" as="geometry" />
        </mxCell>
        <mxCell id="THtRjXHniIfY9D9vdl9W-34" style="edgeStyle=orthogonalEdgeStyle;rounded=0;orthogonalLoop=1;jettySize=auto;html=1;exitX=1;exitY=0.5;exitDx=0;exitDy=0;entryX=0;entryY=0.5;entryDx=0;entryDy=0;" parent="1" source="THtRjXHniIfY9D9vdl9W-8" target="THtRjXHniIfY9D9vdl9W-18" edge="1">
          <mxGeometry relative="1" as="geometry">
            <Array as="points">
              <mxPoint x="290" y="125" />
              <mxPoint x="290" y="155" />
            </Array>
          </mxGeometry>
        </mxCell>
        <mxCell id="THtRjXHniIfY9D9vdl9W-8" value="Biodiversity data (GBIF)" style="rounded=1;whiteSpace=wrap;html=1;fillColor=#448458;fontColor=#FFFFFF;" parent="1" vertex="1">
          <mxGeometry x="160" y="100" width="100" height="50" as="geometry" />
        </mxCell>
        <mxCell id="THtRjXHniIfY9D9vdl9W-32" style="edgeStyle=orthogonalEdgeStyle;rounded=0;orthogonalLoop=1;jettySize=auto;html=1;exitX=1;exitY=0.5;exitDx=0;exitDy=0;entryX=0;entryY=0.5;entryDx=0;entryDy=0;" parent="1" source="THtRjXHniIfY9D9vdl9W-9" target="THtRjXHniIfY9D9vdl9W-18" edge="1">
          <mxGeometry relative="1" as="geometry">
            <Array as="points">
              <mxPoint x="290" y="185" />
              <mxPoint x="290" y="155" />
            </Array>
          </mxGeometry>
        </mxCell>
        <mxCell id="THtRjXHniIfY9D9vdl9W-9" value="Environmental + land-use data" style="rounded=1;whiteSpace=wrap;html=1;fillColor=#448458;fontColor=#FFFFFF;" parent="1" vertex="1">
          <mxGeometry x="160" y="160" width="100" height="50" as="geometry" />
        </mxCell>
        <mxCell id="THtRjXHniIfY9D9vdl9W-30" style="edgeStyle=orthogonalEdgeStyle;rounded=0;orthogonalLoop=1;jettySize=auto;html=1;exitX=1;exitY=0.5;exitDx=0;exitDy=0;entryX=0;entryY=0.5;entryDx=0;entryDy=0;" parent="1" source="THtRjXHniIfY9D9vdl9W-10" target="THtRjXHniIfY9D9vdl9W-18" edge="1">
          <mxGeometry relative="1" as="geometry">
            <Array as="points">
              <mxPoint x="290" y="245" />
              <mxPoint x="290" y="155" />
            </Array>
          </mxGeometry>
        </mxCell>
        <mxCell id="THtRjXHniIfY9D9vdl9W-10" value="Recreator parametrisation" style="rounded=1;whiteSpace=wrap;html=1;fillColor=#448458;fontColor=#FFFFFF;" parent="1" vertex="1">
          <mxGeometry x="160" y="220" width="100" height="50" as="geometry" />
        </mxCell>
        <mxCell id="THtRjXHniIfY9D9vdl9W-12" value="User interface" style="rounded=1;whiteSpace=wrap;html=1;fillColor=#3E7F53;fontColor=#ffffff;" parent="1" vertex="1">
          <mxGeometry x="160" y="360" width="100" height="50" as="geometry" />
        </mxCell>
        <mxCell id="THtRjXHniIfY9D9vdl9W-15" value="Recreationalist / &lt;br&gt;citizen scientist" style="shape=umlActor;verticalLabelPosition=bottom;verticalAlign=top;html=1;outlineConnect=0;" parent="1" vertex="1">
          <mxGeometry x="100" y="300" width="20" height="45" as="geometry" />
        </mxCell>
        <mxCell id="THtRjXHniIfY9D9vdl9W-16" value="Management/policy&lt;div&gt;end user&lt;/div&gt;" style="shape=umlActor;verticalLabelPosition=bottom;verticalAlign=top;html=1;outlineConnect=0;" parent="1" vertex="1">
          <mxGeometry x="100" y="400" width="20" height="40" as="geometry" />
        </mxCell>
        <mxCell id="THtRjXHniIfY9D9vdl9W-25" style="edgeStyle=orthogonalEdgeStyle;rounded=0;orthogonalLoop=1;jettySize=auto;html=1;exitX=1;exitY=0.5;exitDx=0;exitDy=0;" parent="1" source="THtRjXHniIfY9D9vdl9W-18" target="THtRjXHniIfY9D9vdl9W-13" edge="1">
          <mxGeometry relative="1" as="geometry" />
        </mxCell>
        <mxCell id="THtRjXHniIfY9D9vdl9W-45" value="Environmental, land-use data&lt;br&gt;combined with recreator&lt;br&gt;parametrisation" style="edgeLabel;html=1;align=center;verticalAlign=middle;resizable=0;points=[];labelBackgroundColor=#ffffff;comic=0;" parent="THtRjXHniIfY9D9vdl9W-25" vertex="1" connectable="0">
          <mxGeometry x="0.297" y="1" relative="1" as="geometry">
            <mxPoint x="-1" y="18" as="offset" />
          </mxGeometry>
        </mxCell>
        <mxCell id="THtRjXHniIfY9D9vdl9W-26" style="edgeStyle=orthogonalEdgeStyle;rounded=0;orthogonalLoop=1;jettySize=auto;html=1;exitX=1;exitY=0.5;exitDx=0;exitDy=0;entryX=0.5;entryY=0;entryDx=0;entryDy=0;" parent="1" source="THtRjXHniIfY9D9vdl9W-18" target="THtRjXHniIfY9D9vdl9W-14" edge="1">
          <mxGeometry relative="1" as="geometry" />
        </mxCell>
        <mxCell id="THtRjXHniIfY9D9vdl9W-46" value="Biodiversity data and&lt;br&gt;environmental data" style="edgeLabel;html=1;align=center;verticalAlign=middle;resizable=0;points=[];labelBackgroundColor=#ffffff;" parent="THtRjXHniIfY9D9vdl9W-26" vertex="1" connectable="0">
          <mxGeometry x="0.6328" y="-1" relative="1" as="geometry">
            <mxPoint x="1" y="20" as="offset" />
          </mxGeometry>
        </mxCell>
        <mxCell id="THtRjXHniIfY9D9vdl9W-18" value="Input data&lt;br&gt;processing" style="rounded=1;whiteSpace=wrap;html=1;" parent="1" vertex="1">
          <mxGeometry x="353.26" y="130" width="76.74" height="50" as="geometry" />
        </mxCell>
        <mxCell id="THtRjXHniIfY9D9vdl9W-22" style="edgeStyle=orthogonalEdgeStyle;rounded=0;orthogonalLoop=1;jettySize=auto;html=1;exitX=0;exitY=0.5;exitDx=0;exitDy=0;entryX=1;entryY=0.5;entryDx=0;entryDy=0;" parent="1" source="THtRjXHniIfY9D9vdl9W-19" target="THtRjXHniIfY9D9vdl9W-12" edge="1">
          <mxGeometry relative="1" as="geometry">
            <Array as="points">
              <mxPoint x="320" y="425" />
              <mxPoint x="320" y="385" />
            </Array>
          </mxGeometry>
        </mxCell>
        <mxCell id="THtRjXHniIfY9D9vdl9W-20" value="Cultural Ecosystem Services Digital Twin" style="swimlane;whiteSpace=wrap;html=1;fillColor=#cc915c;" parent="1" vertex="1">
          <mxGeometry x="310" y="80" width="440" height="410" as="geometry" />
        </mxCell>
        <mxCell id="THtRjXHniIfY9D9vdl9W-19" value="Model outputs" style="rounded=1;whiteSpace=wrap;html=1;fontColor=#ffffff;fillColor=#448458;strokeColor=#005700;" parent="THtRjXHniIfY9D9vdl9W-20" vertex="1">
          <mxGeometry x="53.25999999999999" y="320" width="76.74" height="50" as="geometry" />
        </mxCell>
        <mxCell id="THtRjXHniIfY9D9vdl9W-24" value="" style="shape=datastore;whiteSpace=wrap;html=1;" parent="THtRjXHniIfY9D9vdl9W-20" vertex="1">
          <mxGeometry x="120" y="300" width="20" height="30" as="geometry" />
        </mxCell>
        <mxCell id="THtRjXHniIfY9D9vdl9W-29" style="edgeStyle=orthogonalEdgeStyle;rounded=0;orthogonalLoop=1;jettySize=auto;html=1;exitX=0.5;exitY=1;exitDx=0;exitDy=0;entryX=1;entryY=0.5;entryDx=0;entryDy=0;" parent="THtRjXHniIfY9D9vdl9W-20" source="THtRjXHniIfY9D9vdl9W-14" target="THtRjXHniIfY9D9vdl9W-19" edge="1">
          <mxGeometry relative="1" as="geometry" />
        </mxCell>
        <mxCell id="THtRjXHniIfY9D9vdl9W-47" value="Predicted species distributions&lt;br&gt;and DECIDE recording priority" style="edgeLabel;html=1;align=center;verticalAlign=middle;resizable=0;points=[];labelBackgroundColor=#ffffff;" parent="THtRjXHniIfY9D9vdl9W-29" vertex="1" connectable="0">
          <mxGeometry x="-0.6937" relative="1" as="geometry">
            <mxPoint as="offset" />
          </mxGeometry>
        </mxCell>
        <mxCell id="THtRjXHniIfY9D9vdl9W-14" value="Biodiversity model and DECIDE priority" style="rounded=1;whiteSpace=wrap;html=1;fillColor=#3E7F53;fontColor=#ffffff;" parent="THtRjXHniIfY9D9vdl9W-20" vertex="1">
          <mxGeometry x="290" y="170" width="120" height="50" as="geometry" />
        </mxCell>
        <mxCell id="THtRjXHniIfY9D9vdl9W-13" value="Recreation potential model" style="rounded=1;whiteSpace=wrap;html=1;fillColor=#448458;fontColor=#FFFFFF;" parent="THtRjXHniIfY9D9vdl9W-20" vertex="1">
          <mxGeometry x="130" y="170" width="120" height="50" as="geometry" />
        </mxCell>
        <mxCell id="THtRjXHniIfY9D9vdl9W-27" style="edgeStyle=orthogonalEdgeStyle;rounded=0;orthogonalLoop=1;jettySize=auto;html=1;exitX=0.5;exitY=1;exitDx=0;exitDy=0;entryX=1;entryY=0.5;entryDx=0;entryDy=0;" parent="THtRjXHniIfY9D9vdl9W-20" source="THtRjXHniIfY9D9vdl9W-13" target="THtRjXHniIfY9D9vdl9W-19" edge="1">
          <mxGeometry relative="1" as="geometry" />
        </mxCell>
        <mxCell id="THtRjXHniIfY9D9vdl9W-44" value="Recreation potential map" style="edgeLabel;html=1;align=center;verticalAlign=middle;resizable=0;points=[];labelBackgroundColor=#ffffff;rotation=0;" parent="THtRjXHniIfY9D9vdl9W-27" vertex="1" connectable="0">
          <mxGeometry x="-0.4378" y="1" relative="1" as="geometry">
            <mxPoint x="-1" y="-7" as="offset" />
          </mxGeometry>
        </mxCell>
        <mxCell id="THtRjXHniIfY9D9vdl9W-37" value="Models re-run on a schedule" style="text;html=1;strokeColor=none;fillColor=none;align=center;verticalAlign=middle;whiteSpace=wrap;rounded=0;" parent="THtRjXHniIfY9D9vdl9W-20" vertex="1">
          <mxGeometry x="53.25999999999999" y="180" width="60" height="30" as="geometry" />
        </mxCell>
        <mxCell id="3VuYLtvzCzvaBB-6H0bI-5" value="eLTER biodiversity data&amp;nbsp;" style="rounded=1;whiteSpace=wrap;html=1;fontColor=#FFFFFF;fillColor=#3E7F53;gradientColor=none;" parent="THtRjXHniIfY9D9vdl9W-20" vertex="1">
          <mxGeometry x="-150" y="-40" width="100" height="50" as="geometry" />
        </mxCell>
        <mxCell id="3VuYLtvzCzvaBB-6H0bI-6" value="Input data&lt;br&gt;processing" style="rounded=1;whiteSpace=wrap;html=1;fontColor=#FFFFFF;fillColor=#3E7F53;gradientColor=none;" parent="THtRjXHniIfY9D9vdl9W-20" vertex="1">
          <mxGeometry x="43.25999999999999" y="50" width="76.74" height="50" as="geometry" />
        </mxCell>
      </root>
    </mxGraphModel>
  </diagram>
</mxfile>
